<?xml version="1.0" encoding="UTF-8"?><svg id="Layer_1" xmlns="http://www.w3.org/2000/svg" viewBox="0 0 200 200"><defs><style>.cls-1{fill-rule:evenodd;}</style></defs><path class="cls-1" d="m94.5,169.6h11c1.99,0,3.63,1.65,3.63,3.63v8.81c0,2.02-1.65,3.63-3.63,3.63h-11c-1.99,0-3.63-1.61-3.63-3.63v-8.81c0-1.99,1.65-3.63,3.63-3.63h0Z"/><path class="cls-1" d="m94.5,170.19h11c1.68,0,3.05,1.37,3.05,3.05v8.81c0,1.68-1.37,3.08-3.05,3.08h-11c-1.68,0-3.08-1.41-3.08-3.08v-8.81c0-1.68,1.41-3.05,3.08-3.05h0Z"/><path class="cls-1" d="m48.71,63.54c.14,27.21,23.24,69.64,44.59,98.91h2.09c-16.24-29.61-30.09-66.14-30.23-94.93-.1-26.11,10.59-42.7,24.98-52.16-3.22.31-6.41.75-9.6,1.34-17.75,7.06-31.98,21.66-31.84,46.85h0Z"/><path class="cls-1" d="m95.7,14.97c-8.33,11.21-14.74,27.07-14.67,50.1.07,30.09,7.09,65.83,16.18,97.36h5.59c9.05-31.53,16.11-67.27,16.18-97.36.07-23.03-6.37-38.9-14.67-50.1-2.88-.1-5.72-.1-8.6,0h0Z"/><path class="cls-1" d="m151.29,63.54c-.14,27.21-23.24,69.64-44.59,98.91h-2.09c16.21-29.61,30.09-66.14,30.19-94.93.1-26.11-10.56-42.7-24.95-52.16,3.19.31,6.41.75,9.56,1.34,17.75,7.06,32.01,21.66,31.87,46.85h0Z"/><path class="cls-1" d="m108.14,162.44c23.92-25.16,51.03-67.21,51.2-99.59.14-19.88-9.56-33.07-23.1-41.09,16.59,7.09,29.23,20.25,29.1,41.61-.17,32.93-31.74,76.39-56.79,99.08h-.41Z"/><path class="cls-1" d="m91.86,162.44c-23.92-25.16-51.03-67.21-51.24-99.59-.1-19.88,9.56-33.07,23.13-41.09-16.62,7.09-29.23,20.25-29.1,41.61.17,32.93,31.74,76.39,56.75,99.08h.45Z"/></svg>