<?xml version="1.0" encoding="UTF-8"?><svg id="Layer_1" xmlns="http://www.w3.org/2000/svg" viewBox="0 0 200 200"><defs><style>.cls-1{fill-rule:evenodd;}</style></defs><path d="m169.25,10.5c11.72,0,21.25,9.53,21.25,21.25v137.5c0,11.72-9.53,21.25-21.25,21.25H31.75c-11.72,0-21.25-9.53-21.25-21.25V31.75c0-11.72,9.53-21.25,21.25-21.25h137.5m0-10H31.75C14.49.5.5,14.49.5,31.75v137.5c0,17.26,13.99,31.25,31.25,31.25h137.5c17.26,0,31.25-13.99,31.25-31.25V31.75c0-17.26-13.99-31.25-31.25-31.25h0Z"/><g><path class="cls-1" d="m34.27,57.32h.1c5.26-.17,13.83-.25,25.72-.25,14.22,0,25.3,3.86,32.98,11.8,7.63,7.8,11.39,18,11.39,30.46.08,5.94-.88,11.85-2.83,17.46-1.62,4.71-4.19,9.04-7.54,12.72-3.08,3.32-6.72,6.08-10.75,8.16-3.97,2.09-8.2,3.64-12.58,4.62h-.02c-4.24.86-8.56,1.29-12.89,1.28-7.98,0-15.8-.08-23.45-.25-.72,0-1.39-.35-1.79-.95-.31-.5-.46-1.09-.44-1.68V59.82c-.02-.57.16-1.13.49-1.59.37-.48.91-.8,1.52-.89l.1-.02Zm23.95,71.53c8.68,0,15.24-2.4,19.87-7.03,4.6-4.68,7.04-11.99,7.04-22.25h0c.08-9.51-2.15-16.38-6.44-20.9-4.29-4.52-10.43-6.88-18.59-6.88-4.34,0-7.34.05-9.09.14v56.75c2.46.12,4.87.17,7.21.17"/><path d="m128.36,84.15c-.14-.85-.34-1.68-.6-2.5l-.06-.17-.1-.16c-.59-1.04-1.7-1.69-2.9-1.7h-11.96c-1.18-.09-2.22.79-2.31,1.97-.02.26,0,.52.08.77.32,3.41.48,7.82.48,13.22v45.11c-.03.67.2,1.33.63,1.84.48.52,1.17.81,1.88.78h13.71c.67.03,1.33-.2,1.84-.62.52-.48.81-1.17.78-1.87v-42.53c2.62-2.94,6.39-4.61,10.33-4.56,2.49-.2,4.93.8,6.56,2.69,1.66,2.33,2.47,5.17,2.28,8.03v36.26c-.08,1.37.96,2.54,2.32,2.62.1,0,.2,0,.3,0h13.71c.71.02,1.39-.26,1.88-.78.43-.52.65-1.17.62-1.84v-35.89c0-9.07-2.11-15.94-6.72-20.17-4.25-4-9.88-6.2-15.72-6.13-6.15-.1-12.16,1.89-17.04,5.65"/></g></svg>