<?xml version="1.0" encoding="UTF-8"?><svg id="Layer_1" xmlns="http://www.w3.org/2000/svg" viewBox="0 0 200 200"><path d="m164.58,10c14.01,0,25.42,11.81,25.42,26.32v127.35c0,14.52-11.4,26.32-25.42,26.32H35.42c-14.01,0-25.42-11.81-25.42-26.32V36.32c0-14.52,11.4-26.32,25.42-26.32h129.17m0-10H35.42C15.83,0,0,16.24,0,36.32v127.35C0,183.76,15.83,200,35.42,200h129.17c19.58,0,35.42-16.24,35.42-36.32V36.32c0-20.09-15.83-36.32-35.42-36.32h0Z"/><path d="m100.04,119.66h-31.79l-6.5,20.09c-.17.77-.85,1.28-1.62,1.2h-16.07c-.94,0-1.2-.51-.94-1.54l27.52-79.23c.26-.85.51-1.79.85-2.82.34-1.79.51-3.68.51-5.56-.09-.43.26-.85.68-.94h22.14c.68,0,1.03.26,1.11.68l31.2,88.03c.26.94,0,1.37-.85,1.37h-17.86c-.6.09-1.2-.34-1.37-.94l-7.01-20.34Zm-26.84-17.35h21.71c-.51-1.79-1.2-3.93-1.97-6.15-.77-2.31-1.54-4.79-2.31-7.35-.85-2.65-1.62-5.21-2.48-7.86s-1.62-5.13-2.31-7.61c-.68-2.39-1.28-4.62-1.88-6.67h-.17c-.77,3.68-1.71,7.35-2.91,11.03-1.28,4.1-2.56,8.38-3.93,12.65-1.2,4.36-2.48,8.38-3.76,11.97h0Zm72.99-36.5c-2.82.09-5.56-1.03-7.61-2.99-1.97-2.14-2.99-4.96-2.91-7.86-.09-2.91,1.03-5.64,3.08-7.61s4.79-2.99,7.61-2.99c3.33,0,5.9,1.03,7.78,2.99,1.88,2.05,2.91,4.79,2.82,7.61.09,2.91-.94,5.73-2.99,7.86-1.97,2.05-4.87,3.16-7.78,2.99h0Zm-9.57,74.19v-65.81c0-.85.34-1.2,1.11-1.2h16.92c.77,0,1.11.43,1.11,1.2v65.81c0,.94-.34,1.37-1.11,1.37h-16.75c-.85,0-1.28-.51-1.28-1.37Z"/></svg>