<?xml version="1.0" encoding="UTF-8"?><svg id="Layer_1" xmlns="http://www.w3.org/2000/svg" viewBox="0 0 200 200"><path d="m168.75,10c11.72,0,21.25,9.53,21.25,21.25v137.5c0,11.72-9.53,21.25-21.25,21.25H31.25c-11.72,0-21.25-9.53-21.25-21.25V31.25c0-11.72,9.53-21.25,21.25-21.25h137.5m0-10H31.25C13.99,0,0,13.99,0,31.25v137.5C0,186.01,13.99,200,31.25,200h137.5c17.26,0,31.25-13.99,31.25-31.25V31.25c0-17.26-13.99-31.25-31.25-31.25h0Z"/><path d="m71.05,59.17v82.81c0,.88-.4,1.32-1.19,1.32h-15.12c-.71,0-1.06-.44-1.06-1.32V59.17c0-.71.39-1.06,1.19-1.06h15.12c.51-.07.99.29,1.06.8.01.09.01.17,0,.26h0Z"/><path d="m120.11,145.1c-6.08.09-12.11-1.17-17.64-3.69-5.15-2.38-9.46-6.28-12.35-11.17-3.18-5.71-4.73-12.18-4.49-18.71-.05-6.07,1.5-12.04,4.49-17.32,3.08-5.37,7.62-9.77,13.08-12.69,6.4-3.33,13.54-4.97,20.75-4.75.44,0,1.01.02,1.72.07.7.05,2.25.11,3.22.2v-25.01c0-.62.26-.92.79-.92h15.32c.38-.05.74.21.79.6,0,.06,0,.13,0,.19v77.08c0,1.5.07,3.13.2,4.89.13,1.76.24,3.35.33,4.76.03.56-.28,1.09-.79,1.32-4.08,1.79-8.35,3.11-12.73,3.96-4.18.77-8.43,1.17-12.69,1.19m8.77-16.39v-36.08c-.95-.19-1.92-.32-2.89-.4-.9-.09-1.81-.14-2.71-.13-3.21-.03-6.38.69-9.25,2.11-6.3,3-10.13,9.55-9.65,16.52-.06,2.88.41,5.75,1.39,8.46.8,2.18,2.06,4.17,3.7,5.82,1.57,1.52,3.47,2.65,5.55,3.3,2.2.71,4.5,1.07,6.81,1.06,1.23,0,2.38-.04,3.44-.13,1.22-.08,2.43-.25,3.62-.53h0Z"/></svg>