<?xml version="1.0" encoding="UTF-8"?><svg id="Layer_1" xmlns="http://www.w3.org/2000/svg" viewBox="0 0 200 200"><path d="m45.85,159.28c-.22-2.41-.45-4.82-.67-7.24-.12-1.33-.21-2.66-.36-3.98-.16-1.39-.26-2.79-.4-4.19-.1-1-.16-2.01-.25-3.02-.17-1.9-.35-3.8-.53-5.7-.13-1.41-.24-2.84-.36-4.25-.31-3.68-.66-7.35-.98-11.03-.27-3.09-.52-6.18-.8-9.27-.29-3.23-.59-6.47-.88-9.7-.23-2.52-.44-5.04-.67-7.55-.24-2.69-.51-5.37-.75-8.06-.24-2.68-.45-5.37-.69-8.05-.24-2.67-.5-5.33-.74-8-.2-2.28-.38-4.57-.58-6.86-.2-2.28-.42-4.57-.62-6.85-.17-1.86-.3-3.73-.48-5.59-.14-1.42-.28-2.84-.4-4.26-.13-1.5-.23-3-.37-4.5-.2-2.22-.36-4.45-.61-6.67-.13-1.18-.2-2.38-.28-3.56-.12-1.73-.32-3.46-.33-5.2,0-.54.16-.65.68-.65,37.5.01,75,.01,112.5.01,5.94,0,11.88,0,17.81,0,.17,0,.34-.02.49.01.15.03.36.11.27.31-.28.68-.16,1.41-.23,2.11-.2,2.13-.35,4.26-.56,6.39-.19,1.89-.3,3.79-.46,5.69-.16,1.92-.34,3.84-.51,5.76-.16,1.85-.32,3.69-.48,5.54-.17,1.94-.35,3.87-.52,5.81-.16,1.83-.31,3.66-.47,5.48-.17,1.92-.34,3.84-.51,5.76-.16,1.85-.32,3.69-.48,5.54-.17,1.9-.34,3.8-.51,5.7-.16,1.85-.32,3.69-.48,5.54-.17,1.92-.34,3.84-.51,5.76-.16,1.77-.32,3.55-.48,5.32-.21,2.39-.43,4.78-.64,7.17-.2,2.27-.38,4.53-.58,6.8-.2,2.27-.42,4.53-.63,6.8-.2,2.25-.38,4.5-.59,6.75-.17,1.84-.37,3.69-.53,5.53-.16,1.81-.3,3.62-.45,5.43-.2,2.29-.41,4.57-.62,6.85-.12,1.37-.24,2.74-.37,4.11-.18,1.83-.37,3.66-.54,5.49-.09.98-.14,1.97-.23,2.95-.15,1.69-.32,3.38-.45,5.08-.05.61-.37.91-.88,1.13-1.66.73-3.41,1.23-5.14,1.75-10.26,3.04-20.59,5.82-30.9,8.67-5.62,1.55-11.25,3.09-16.91,4.52-.48.12-.92.12-1.39-.01-6.19-1.71-12.39-3.4-18.58-5.11-1.6-.44-3.19-.88-4.78-1.33-8.27-2.31-16.55-4.62-24.81-6.96-1.16-.33-2.38-.49-3.48-1.05-.09-.04-.22,0-.32-.01-.89-.1-.98-.19-.99-1.07Zm45.84-56.34h0c5.7,0,11.4,0,17.1,0,3.57,0,7.13,0,10.7-.01.44,0,.53.13.46.53-.13.76-.24,1.52-.32,2.29-.26,2.61-.49,5.21-.74,7.82-.12,1.24-.3,2.47-.36,3.71-.09,1.94-.4,3.86-.57,5.8-.06.68-.39,1.05-1.06,1.16-.32.05-.63.17-.95.27-4.95,1.48-9.93,2.79-14.95,3.99-.63.15-1.27.42-1.94.25-1.39-.35-2.76-.76-4.15-1.09-1.65-.39-3.29-.84-4.94-1.27-1.31-.34-2.63-.73-3.93-1.13-1.39-.42-2.81-.76-4.21-1.13-.2-.05-.37-.1-.4-.36-.17-1.92-.35-3.84-.53-5.76-.08-.89-.16-1.77-.24-2.66-.02-.2-.24-.34-.19-.55.23-.97-.1-1.91-.14-2.87,0-.21-.29-.35-.16-.59.17-.32-.05-.33-.27-.33-.57,0-1.14,0-1.71,0-4.71,0-9.41,0-14.12-.01-.53,0-.65.16-.6.65.07.73,0,1.48.12,2.2.1.69.09,1.39.13,2.07.04.61.14,1.25.13,1.89,0,.85.13,1.72.21,2.58.07.82.16,1.64.21,2.47.08,1.18.24,2.36.37,3.54.12,1.14.25,2.27.38,3.41.24,2.24.5,4.49.89,6.71.07.42.24.65.69.79,4.01,1.22,8.04,2.35,12.07,3.48.89.25,1.77.58,2.71.68.52.06,1,.41,1.52.53,1.77.42,3.53.9,5.28,1.4,1.22.35,2.46.65,3.67,1.05,1.16.39,2.35.67,3.53.99.95.26,1.93.46,2.86.79.6.21,1.17.33,1.8.17,1.94-.51,3.88-.99,5.81-1.51,7.37-1.98,14.73-4,22.04-6.18,1.89-.56,3.77-1.18,5.65-1.78.09-.03.15-.07.16-.18.09-.82.22-1.63.26-2.44.05-.9.17-1.8.26-2.69.12-1.15.29-2.29.38-3.44.11-1.42.25-2.85.39-4.26.19-1.8.32-3.61.51-5.41.23-2.24.37-4.49.58-6.74.17-1.83.31-3.67.51-5.5.19-1.7.31-3.41.46-5.12.25-2.92.44-5.84.79-8.75.21-1.76.28-3.54.58-5.29.06-.33.04-.5-.38-.61-.84-.21-1.69-.22-2.53-.27-1.48-.1-2.98-.11-4.46-.12-16.12-.01-32.25-.01-48.37-.01-.15,0-.29-.01-.44,0-.25.02-.39-.05-.35-.33.19-1.31.08-2.64.33-3.96.24-1.24.07-2.53.36-3.78.02-.09-.02-.22-.07-.31-.09-.15-.05-.27.03-.4.22-.34.23-.73.24-1.11,0-.41-.1-.84,0-1.22.18-.61-.02-1.23.22-1.84.09-.22-.02-.53.11-.79.15-.3-.22-.58-.1-.83.47-.96.18-2.02.43-3.02.21-.83.18-1.72.26-2.58.1-.95.21-1.9.31-2.86.08-.77.14-1.54.21-2.32.01-.12.08-.23.19-.24.62-.07,1.29-.32,1.83-.27.62.07,1.21.05,1.82.03,2.16-.07,4.33-.16,6.49-.2,2.2-.04,4.4-.07,6.61.03,3.54.16,7.08.21,10.62.37,1.63.07,3.26.2,4.89.26.67.03,1.34.13,2.02.2,1,.11,1.04.15,1.15,1.15.11.96.24,1.92.34,2.88.19,1.79.39,3.59.55,5.39.2,2.26.38,4.51.55,6.77.03.42.19.62.59.72.7.17,1.41.18,2.12.18,4.67,0,9.34,0,14.01.02.31,0,.52,0,.47-.43-.22-2.04-.41-4.09-.62-6.14-.16-1.55-.39-3.09-.45-4.64-.04-1.1-.22-2.18-.27-3.28-.07-1.4-.28-2.79-.41-4.19-.12-1.29-.19-2.58-.3-3.87-.14-1.59-.25-3.18-.46-4.76-.18-1.37-.22-2.76-.33-4.15-.11-1.31-.24-2.63-.33-3.94-.03-.4-.25-.37-.51-.37-2.65-.02-5.29-.04-7.94-.05-3.22-.01-6.43-.02-9.65-.03-10.92-.02-21.84-.05-32.76-.04-3.56,0-7.12-.03-10.68.12-1.42.06-2.85.05-4.28.14-.3.02-.64.01-.68.46-.15,1.59-.31,3.17-.46,4.75-.1,1.08-.12,2.18-.27,3.24-.17,1.25-.26,2.5-.4,3.75-.08.72-.05,1.46-.16,2.16-.11.68-.2,1.36-.26,2.04-.1,1.19-.16,2.38-.3,3.57-.21,1.8-.34,3.62-.5,5.43-.12,1.39-.23,2.78-.36,4.16-.13,1.49-.3,2.98-.41,4.47-.09,1.21-.19,2.43-.28,3.64-.06.92-.19,1.85-.28,2.78-.14,1.37-.24,2.74-.36,4.11-.17,1.97-.35,3.95-.53,5.92-.15,1.75-.27,3.51-.46,5.25-.15,1.44-.22,2.88-.31,4.32-.02.36.06.5.47.5,9.25-.01,18.49-.01,27.74-.01Z"/></svg>