<?xml version="1.0" encoding="UTF-8"?><svg id="Layer_1" xmlns="http://www.w3.org/2000/svg" viewBox="0 0 200 200"><g id="Layer_2"><g id="Surfaces"><g id="Photo_Surface"><g id="Outline_no_shadow"><path d="m164.58,10c14.02,0,25.42,11.81,25.42,26.32v127.35c0,14.52-11.4,26.32-25.42,26.32H35.42c-14.02,0-25.42-11.81-25.42-26.32V36.32c0-14.52,11.4-26.32,25.42-26.32h129.16m0-10H35.42C15.85,0,0,16.26,0,36.32v127.35C0,183.74,15.85,200,35.42,200h129.16c19.57,0,35.42-16.26,35.42-36.32V36.32c0-20.07-15.85-36.32-35.42-36.32h0Z"/></g></g></g><g id="Outlined_Mnemonics_Logos"><g id="Ps"><path d="m45.01,139.23V53.48c0-.56.24-.89.85-.89,1.41,0,2.73,0,4.66-.09,2.02-.09,4.09-.09,6.35-.19s4.66-.09,7.24-.19,5.08-.09,7.57-.09c6.82,0,12.51.85,17.17,2.59,4.19,1.41,8,3.76,11.15,6.82,2.68,2.68,4.75,5.93,6.07,9.5,1.27,3.48,1.93,7.1,1.93,10.82,0,7.15-1.65,13.08-4.99,17.73s-8,8.18-13.41,10.16c-5.64,2.07-11.9,2.82-18.77,2.82-2.02,0-3.34,0-4.19-.09-.85-.09-2.02-.09-3.57-.09v26.76c.09.56-.33,1.08-.89,1.18h-16.18c-.66.09-.99-.24-.99-.99Zm18.16-70.56v27.99c1.18.09,2.26.19,3.25.19h4.42c3.25,0,6.49-.52,9.6-1.51,2.68-.75,4.99-2.35,6.82-4.42,1.74-2.07,2.59-4.94,2.59-8.56.09-2.59-.56-5.17-1.93-7.43-1.41-2.16-3.43-3.81-5.83-4.75-3.1-1.27-6.4-1.74-9.83-1.65-2.16,0-4.09,0-5.64.09-1.69-.14-2.87-.05-3.43.05h0Z"/><path d="m160.02,91.58c-2.49-1.32-5.17-2.26-8-2.82-3.1-.66-6.16-1.08-9.31-1.08-1.65-.09-3.43.19-4.99.56-1.08.24-2.02.85-2.59,1.65-.42.66-.66,1.51-.66,2.26s.33,1.51.85,2.16c.75.89,1.74,1.65,2.82,2.26,1.93.99,3.9,1.93,5.93,2.73,4.52,1.51,8.84,3.57,12.84,6.07,2.73,1.74,4.99,4.09,6.59,6.91,1.32,2.68,2.02,5.6,1.93,8.56.09,3.9-1.08,7.86-3.25,11.1-2.35,3.34-5.6,5.93-9.31,7.43-4.09,1.74-9.08,2.68-15.1,2.68-3.81,0-7.57-.33-11.34-1.08-2.92-.52-5.83-1.41-8.51-2.68-.56-.33-.99-.89-.89-1.6v-14.49c0-.24.09-.56.33-.75s.52-.09.75.09c3.25,1.93,6.68,3.25,10.35,4.09,3.15.85,6.49,1.27,9.83,1.27,3.15,0,5.41-.42,6.91-1.18,1.32-.56,2.26-2.02,2.26-3.48,0-1.18-.66-2.26-2.02-3.34-1.32-1.08-4.09-2.35-8.18-3.9-4.23-1.51-8.18-3.48-11.85-6.02-2.59-1.83-4.75-4.23-6.35-7.1-1.32-2.68-2.02-5.6-1.93-8.51,0-3.57.99-7.01,2.82-10.07,2.07-3.34,5.17-6.02,8.75-7.67,3.9-2.02,8.84-2.92,14.77-2.92,3.43,0,6.91.24,10.35.75,2.49.33,4.94.99,7.15,1.93.33.09.66.42.85.75.09.33.19.66.19.99v13.59c0,.33-.19.66-.42.85-.8.19-1.22.19-1.55,0Z"/></g></g></g></svg>