<?xml version="1.0" encoding="UTF-8"?><svg id="Layer_1" xmlns="http://www.w3.org/2000/svg" viewBox="0 0 200 200"><path d="m164.58,10c14.01,0,25.42,11.81,25.42,26.32v127.35c0,14.52-11.4,26.32-25.42,26.32H35.42c-14.01,0-25.42-11.81-25.42-26.32V36.32c0-14.52,11.4-26.32,25.42-26.32h129.17m0-10H35.42C15.83,0,0,16.24,0,36.32v127.35C0,183.76,15.83,200,35.42,200h129.17c19.58,0,35.42-16.24,35.42-36.32V36.32c0-20.09-15.83-36.32-35.42-36.32h0Z"/><g><path d="m47.5,143.04V57.29c0-.58.25-.92.83-.92,1.42,0,2.75,0,4.67-.08,2-.08,4.08-.08,6.33-.17,2.25-.08,4.67-.08,7.25-.17s5.08-.08,7.58-.08c6.83,0,12.5.83,17.17,2.58,4.17,1.42,8,3.75,11.17,6.83,2.67,2.67,4.75,5.92,6.08,9.5,1.25,3.5,1.92,7.08,1.92,10.83,0,7.17-1.67,13.08-5,17.75-3.33,4.67-8,8.17-13.42,10.17-5.67,2.08-11.92,2.83-18.75,2.83-2,0-3.33,0-4.17-.08-.83-.08-2-.08-3.58-.08v26.75c.08.58-.33,1.08-.92,1.17h-16.17c-.67,0-1-.33-1-1.08m18.17-70.58v28c1.17.08,2.25.17,3.25.17h4.42c3.25,0,6.5-.5,9.58-1.5,2.67-.75,5-2.33,6.83-4.42,1.75-2.08,2.58-4.92,2.58-8.58.08-2.58-.58-5.17-1.92-7.42-1.42-2.17-3.42-3.83-5.83-4.75-3.08-1.25-6.42-1.75-9.83-1.67-2.17,0-4.08,0-5.67.08-1.67-.08-2.83,0-3.42.08"/><path d="m122.17,77.29h14.58c.83,0,1.5.58,1.75,1.33.25.67.42,1.33.5,2.08.17.83.33,1.75.42,2.58.08.92.17,1.92.17,3,2.5-2.92,5.5-5.33,8.92-7.17,3.83-2.17,8.25-3.25,12.67-3.25.58-.08,1.08.33,1.17.92v16.58c0,.67-.42.92-1.33.92-3-.08-6.08.17-9,.83-2.42.5-4.75,1.25-7,2.25-1.58.75-3.08,1.75-4.25,3.08v42.5c0,.83-.33,1.17-1.08,1.17h-16.42c-.67.08-1.25-.33-1.33-1v-46.5c0-2,0-4.08-.08-6.25-.08-2.17-.08-4.33-.17-6.5,0-1.92-.17-3.75-.33-5.67-.08-.42.17-.83.58-.92,0-.08.17-.08.25,0"/></g></svg>