<?xml version="1.0" encoding="UTF-8"?><svg id="Layer_1" xmlns="http://www.w3.org/2000/svg" viewBox="0 0 200 200"><path d="m77.14,126.89c-1.13-.92-2.06-1.75-3.06-2.48-6.22-4.52-12.54-8.91-18.67-13.55-4.62-3.5-8.78-7.56-11.93-12.5-2.49-3.9-4.46-8.07-4.04-12.84.36-4.13,1.85-7.97,3.85-11.6,4.71-8.52,11.39-15.3,19.08-21.08,14.35-10.77,30.2-18.57,47.61-22.91,11.13-2.77,22.39-3.06,33.49.5,5.26,1.69,9.98,4.32,13.35,8.88,3.26,4.42,4.39,9.51,3.52,14.8-3.03,18.32-14.69,29.3-31.24,35.75-8.08,3.15-16.57,4.55-25.27,4.21-5.81-.23-11.33-1.49-15.88-5.47-1.76-1.54-3.35-3.22-3.85-5.61-.1-.48.17-1.03.27-1.55.44.2.98.29,1.29.61,5.46,5.51,12.27,6.46,19.53,5.82,8.15-.71,15.87-2.96,23.07-6.85,8.78-4.74,16.16-10.97,20.44-20.28,1.37-2.97,2.08-6.08,1.81-9.41-.37-4.62-2.97-7.5-6.95-9.37-3.93-1.85-8.12-2.58-12.42-2.76-10.75-.44-20.99,1.99-30.84,6.02-11.93,4.88-23.13,11.09-33.06,19.42-3.92,3.29-7.41,6.98-10.07,11.4-5.82,9.63-4.93,19.16,3.12,26.99,4.75,4.62,10.16,8.57,15.22,12.86,2.64,2.24,5.24,4.55,7.77,6.92.78.73,1.4.87,2.43.63,8.37-1.94,16.8-2.72,25.08.18,7.59,2.66,13.01,7.62,14.88,15.79,1.4,6.15-1.7,12.25-7.42,14.69-.73.31-1.56.38-2.34.55-.23-.32-.46-.64-.7-.96.56-.26,1.15-.46,1.66-.78,7.3-4.57,6.74-12.03,2.01-17.5-3.81-4.4-8.94-6.27-14.46-7.12-4.92-.76-9.89-.83-14.8.25-.54.12-1.07.31-1.77.53,1.73,4.36,2.04,8.76,1.95,13.24-.3,14.45-12.02,27.82-26.32,29.67-2.88.37-5.88.26-8.77-.06-4.65-.53-7.99-4.41-8.76-9.63-1.01-6.85,1.2-12.65,5.8-17.63,4.76-5.15,10.49-9.07,16.45-12.64,2.48-1.48,5.04-2.82,7.57-4.23.38-.21.74-.47,1.38-.88Zm4.03,5.24c-.44.09-.62.08-.76.15-6.44,3.24-12.43,7.12-17.42,12.39-3.23,3.42-5.58,7.34-6.42,12.06-.77,4.36,2,7.1,6.33,6.31,5.75-1.04,10.19-4.17,13.76-8.64,5.29-6.6,6.58-14.03,4.51-22.28Z"/></svg>