<?xml version="1.0" encoding="UTF-8"?><svg id="Layer_1" xmlns="http://www.w3.org/2000/svg" viewBox="0 0 200 200"><path d="m102.28,26.73c.33.05.65.13.98.14,8.71.32,17.08,2.22,25.11,5.59,21.13,8.87,37.03,27.27,42.69,49.4,1.07,4.19,1.85,8.43,2.04,12.75.14,3.31.27,6.64.07,9.94-.71,12-4.19,23.17-10.48,33.43-7.83,12.78-18.56,22.33-32.15,28.64-5.95,2.76-12.18,4.65-18.67,5.69-4.48.72-8.99,1.09-13.53.95-14.16-.43-27.23-4.43-38.96-12.41-15.72-10.69-25.92-25.31-30.52-43.79-1.06-4.24-1.66-8.56-1.89-12.93-.03-.66-.18-1.31-.27-1.97,0-1.43,0-2.86,0-4.29.09-.68.24-1.36.27-2.04.14-2.77.46-5.51.93-8.24,1.43-8.27,4.15-16.1,8.33-23.38,9.48-16.48,23.23-27.81,41.27-33.85,6.29-2.11,12.78-3.26,19.42-3.48.3-.01.61-.09.91-.14,1.48,0,2.96,0,4.44,0ZM30.14,99.98c0,38.44,31.16,69.99,69.96,69.98,39.11,0,69.94-31.92,69.96-69.92.02-38.08-30.89-69.98-69.96-69.98-38.71,0-69.92,31.45-69.96,69.92Z"/><path d="m131.39,137.7c-7.51-22.35-15.02-44.69-22.56-67.1.82-.07,1.54-.12,2.27-.19,1.64-.15,3.28-.27,4.91-.45,1.75-.2,2.75-1.86,2.18-3.53-.34-.99-1.14-1.63-2.18-1.67-.62-.03-1.24.02-1.86.06-5.88.43-11.75.8-17.65.67-2.72-.06-5.43-.23-8.15-.37-2.02-.11-4.05-.23-6.07-.38-1.92-.14-3.12,1.49-2.75,3.35.22,1.08,1.06,1.77,2.24,1.88,2.18.22,4.36.43,6.62.65.07.18.18.41.26.66,3.09,8.46,6.18,16.92,9.27,25.38.17.47.21.89.04,1.38-4.44,13.26-8.86,26.53-13.28,39.79-.05.16-.11.31-.23.65-7.64-22.71-15.22-45.26-22.82-67.87.75-.06,1.43-.12,2.11-.18,1.64-.15,3.28-.28,4.91-.45,1.69-.17,2.65-1.39,2.45-3.05-.15-1.2-1.08-2.11-2.29-2.17-.62-.03-1.24.02-1.86.06-5.97.43-11.95.78-17.94.67-.4,0-.8,0-1.22,0,.28-1.19,4.99-7.12,8.27-10.31,8.3-8.06,18.02-13.55,29.27-16.25,22.34-5.36,43.63,2.13,56.9,14.6-.12.02-.2.06-.28.05-4.54-.18-8.53,2.82-10.11,7.13-1.02,2.78-.91,5.56-.06,8.35.66,2.18,1.72,4.18,2.87,6.14,1.28,2.18,2.62,4.32,3.84,6.53,1.73,3.15,2.96,6.5,3.56,10.06.61,3.64.51,7.26-.24,10.87-.85,4.09-2.15,8.05-3.36,12.04-2.25,7.43-4.48,14.87-6.72,22.31-.07.22-.14.45-.21.67-.05,0-.11,0-.16.01Z"/><path d="m120.82,159.34c-12.67,4.31-25.44,4.64-38.43.96,6.27-18.21,12.51-36.35,18.75-54.49.04,0,.09,0,.13,0,6.5,17.8,13,35.61,19.55,53.53Z"/><path d="m42.72,74.63c9.94,27.25,19.87,54.44,29.81,81.68-2.28-.37-11.36-6.62-15.79-10.85-4.68-4.46-8.58-9.52-11.7-15.18-3.12-5.66-5.3-11.65-6.56-17.99-1.26-6.34-1.51-12.72-.83-19.14.65-6.12,3.21-15.46,5.07-18.52Z"/><path d="m155.41,70.45c4.85,8.85,7.34,18.32,7.5,28.38.21,13.99-3.77,26.7-11.96,38.05-5.1,7.06-11.43,12.78-18.91,17.22-.05-.03-.1-.06-.14-.1.07-.24.13-.49.21-.73,5.54-16.03,11.08-32.06,16.64-48.08,1.22-3.51,2.5-7,3.72-10.51,1.39-3.99,2.39-8.09,2.89-12.29.45-3.75.51-7.51.09-11.27-.03-.22-.02-.45-.03-.68Z"/></svg>